<?xml version="1.0" encoding="UTF-8"?>
<svg width="1600px" height="300px" viewBox="0 0 1600 300" version="1.1" xmlns="http://www.w3.org/2000/svg" xmlns:xlink="http://www.w3.org/1999/xlink">
    <!-- Generator: Sketch 54.1 (76490) - https://sketchapp.com -->
    <title>Banners</title>
    <desc>Created with Sketch.</desc>
    <g id="Banners" stroke="none" stroke-width="1" fill="none" fill-rule="evenodd">
        <rect fill="#FFFFFF" x="0" y="0" width="1600" height="300"></rect>
        <g id="Group-3" transform="translate(421.000000, 72.000000)" fill-rule="nonzero">
            <path d="M5.04615211,67.9384766 L20.4270115,67.9384766 C20.8225193,72.5527344 25.4367771,75.4970703 32.1164646,75.4970703 C38.1369724,75.4970703 42.2678318,72.5966797 42.2678318,68.421875 C42.2678318,64.90625 39.4992771,63.0166016 32.2483006,61.5664062 L23.8986912,59.8964844 C12.2971287,57.6992188 6.32056618,51.3710938 6.32056618,41.3955078 C6.32056618,29.0029297 16.2522068,20.8730469 31.5451756,20.8730469 C46.3986912,20.8730469 56.6818943,28.9150391 56.9455662,40.6484375 L42.0481052,40.6484375 C41.6965427,36.1660156 37.4338474,33.0458984 31.7649021,33.0458984 C26.0959568,33.0458984 22.3606052,35.7265625 22.3606052,39.9453125 C22.3606052,43.4169922 25.1731052,45.4384766 31.8527927,46.7568359 L40.0266209,48.3388672 C52.5510349,50.7558594 58.1760349,56.4248047 58.1760349,66.4882812 C58.1760349,79.7158203 48.0686131,87.7138672 31.4572849,87.7138672 C15.4172459,87.7138672 5.30982399,80.1552734 5.04615211,67.9384766 Z M67.3188865,22.5869141 L95.092324,22.5869141 C108.715371,22.5869141 117.943887,31.4638672 117.943887,45.0869141 C117.943887,58.578125 108.231972,67.4111328 94.1255271,67.4111328 L83.4468162,67.4111328 L83.4468162,86 L67.3188865,86 L67.3188865,22.5869141 Z M83.4468162,34.9794922 L83.4468162,55.2382812 L90.7417381,55.2382812 C97.5972068,55.2382812 101.640176,51.7226562 101.640176,45.1308594 C101.640176,38.4511719 97.6411521,34.9794922 90.8296287,34.9794922 L83.4468162,34.9794922 Z M169.801582,72.6845703 L169.801582,86 L126.735176,86 L126.735176,22.5869141 L142.863105,22.5869141 L142.863105,72.6845703 L169.801582,72.6845703 Z M196.083105,75.8925781 C201.00498,75.8925781 204.828223,72.640625 204.828223,68.421875 L204.828223,65.2138672 L196.610449,65.7412109 C191.996191,66.0927734 189.579199,67.8945312 189.579199,70.8388672 C189.579199,73.9589844 192.171973,75.8925781 196.083105,75.8925781 Z M190.41416,86.7470703 C181.009863,86.7470703 174.593848,80.9023438 174.593848,71.9375 C174.593848,63.0166016 181.537207,57.8310547 194.149512,57.0839844 L204.828223,56.46875 L204.828223,52.6455078 C204.828223,49.3496094 202.367285,47.3720703 198.060644,47.3720703 C193.97373,47.3720703 191.337012,48.734375 190.326269,51.3271484 L176.35166,51.3271484 C177.054785,41.8349609 185.712012,35.9462891 198.939551,35.9462891 C212.430762,35.9462891 220.121191,42.0986328 220.121191,52.6455078 L220.121191,86 L205.004004,86 L205.004004,79.9355469 L204.169043,79.9355469 C201.971777,84.1103516 196.610449,86.7470703 190.41416,86.7470703 Z M228.91248,86 L228.91248,37.0888672 L244.029668,37.0888672 L244.029668,45.1308594 L244.864629,45.1308594 C246.051152,40.2089844 250.797246,36.3417969 256.905644,36.3417969 C258.971074,36.3417969 261.388066,36.6054688 262.530644,37.0888672 L262.530644,50.3164062 C261.344121,49.8330078 258.224004,49.4375 255.850957,49.4375 C248.995488,49.4375 244.425176,53.3046875 244.425176,60.1162109 L244.425176,86 L228.91248,86 Z M284.417637,55.3701172 L298.304355,37.0888672 L315.706699,37.0888672 L298.26041,58.0947266 L316.893223,86 L298.787754,86 L286.570957,67.2792969 L283.582676,70.6630859 L283.582676,86 L268.06998,86 L268.06998,18.7636719 L283.582676,18.7636719 L283.582676,55.3701172 L284.417637,55.3701172 Z M348.931582,87.7138672 C329.947207,87.7138672 318.257754,74.9697266 318.257754,54.2714844 C318.257754,33.5732422 329.903262,20.8730469 348.931582,20.8730469 C364.88373,20.8730469 376.968691,31.5078125 377.45209,45.8779297 L361.939394,45.8779297 C361.104434,38.9785156 355.874941,34.3203125 348.931582,34.3203125 C340.098574,34.3203125 334.693301,41.8789062 334.693301,54.2275391 C334.693301,66.6201172 340.098574,74.2666016 348.975527,74.2666016 C355.918887,74.2666016 361.104434,69.7841797 362.027285,62.9726562 L377.496035,62.9726562 C376.968691,77.4746094 365.191348,87.7138672 348.931582,87.7138672 Z M407.205293,87.1425781 C391.560762,87.1425781 382.288301,77.6064453 382.288301,61.5224609 C382.288301,45.7021484 391.824434,35.9462891 407.205293,35.9462891 C422.674043,35.9462891 432.122285,45.6142578 432.122285,61.5224609 C432.122285,77.6503906 422.89377,87.1425781 407.205293,87.1425781 Z M407.205293,75.2773438 C412.918184,75.2773438 416.170137,70.2236328 416.170137,61.5224609 C416.170137,52.9970703 412.830293,47.8115234 407.205293,47.8115234 C401.580293,47.8115234 398.240449,52.9970703 398.240449,61.5224609 C398.240449,70.2675781 401.492402,75.2773438 407.205293,75.2773438 Z M438.804199,86 L438.804199,37.0888672 L453.921387,37.0888672 L453.921387,45.0429688 L454.756348,45.0429688 C456.909668,39.5058594 462.007324,35.9462891 469.08252,35.9462891 C479.980957,35.9462891 485.649902,42.6699219 485.649902,54.4033203 L485.649902,86 L470.093262,86 L470.093262,57.875 C470.093262,51.9423828 467.67627,48.6464844 462.402832,48.6464844 C457.349121,48.6464844 454.316895,52.4257812 454.316895,58.0507812 L454.316895,86 L438.804199,86 Z M498.176543,25.8828125 L513.689238,25.8828125 L513.689238,37.7480469 L523.532988,37.7480469 L523.532988,49.3056641 L513.689238,49.3056641 L513.689238,69.125 C513.689238,72.8164062 515.578887,74.6181641 519.621855,74.6181641 C521.423613,74.6181641 522.39041,74.5302734 523.532988,74.3984375 L523.532988,85.4726562 C521.907012,85.8242188 519.050566,86.0878906 516.10623,86.0878906 C503.230254,86.0878906 498.176543,82.1767578 498.176543,72.5966797 L498.176543,49.3056641 L490.661895,49.3056641 L490.661895,37.7480469 L498.176543,37.7480469 L498.176543,25.8828125 Z M530.742246,86 L530.742246,37.0888672 L545.859434,37.0888672 L545.859434,45.1308594 L546.694395,45.1308594 C547.880918,40.2089844 552.627012,36.3417969 558.73541,36.3417969 C560.80084,36.3417969 563.217832,36.6054688 564.36041,37.0888672 L564.36041,50.3164062 C563.173887,49.8330078 560.05377,49.4375 557.680723,49.4375 C550.825254,49.4375 546.254941,53.3046875 546.254941,60.1162109 L546.254941,86 L530.742246,86 Z M590.993496,87.1425781 C575.348965,87.1425781 566.076504,77.6064453 566.076504,61.5224609 C566.076504,45.7021484 575.612637,35.9462891 590.993496,35.9462891 C606.462246,35.9462891 615.910488,45.6142578 615.910488,61.5224609 C615.910488,77.6503906 606.681973,87.1425781 590.993496,87.1425781 Z M590.993496,75.2773438 C596.706387,75.2773438 599.95834,70.2236328 599.95834,61.5224609 C599.95834,52.9970703 596.618496,47.8115234 590.993496,47.8115234 C585.368496,47.8115234 582.028652,52.9970703 582.028652,61.5224609 C582.028652,70.2675781 585.280606,75.2773438 590.993496,75.2773438 Z M623.031856,86 L623.031856,18.7636719 L638.544551,18.7636719 L638.544551,86 L623.031856,86 Z M648.522363,86 L648.522363,18.7636719 L664.035059,18.7636719 L664.035059,86 L648.522363,86 Z M695.59002,46.9765625 C690.492363,46.9765625 686.932793,50.5361328 686.537285,56.0732422 L704.291192,56.0732422 C704.02752,50.3603516 700.775567,46.9765625 695.59002,46.9765625 Z M704.862481,71.5859375 L719.056817,71.5859375 C717.342949,81.1220703 708.378106,87.1425781 695.721856,87.1425781 C680.12127,87.1425781 671.156426,77.9140625 671.156426,61.8740234 C671.156426,45.7460938 680.340996,35.9462891 695.502129,35.9462891 C710.575371,35.9462891 719.364434,45.0869141 719.364434,60.6875 L719.364434,64.9941406 L686.449395,64.9941406 L686.449395,65.7851562 C686.581231,72.1572266 690.228692,76.1123047 696.161309,76.1123047 C700.687676,76.1123047 703.807793,74.4423828 704.862481,71.5859375 Z M726.002403,86 L726.002403,37.0888672 L741.11959,37.0888672 L741.11959,45.1308594 L741.954551,45.1308594 C743.141074,40.2089844 747.887168,36.3417969 753.995567,36.3417969 C756.060996,36.3417969 758.477988,36.6054688 759.620567,37.0888672 L759.620567,50.3164062 C758.434043,49.8330078 755.313926,49.4375 752.940879,49.4375 C746.08541,49.4375 741.515098,53.3046875 741.515098,60.1162109 L741.515098,86 L726.002403,86 Z" id="SPLarkController" fill="#007AFF"></path>
            <path d="M80.1875,138.34375 L85.109375,138.34375 C85.421875,140.863281 87.921875,142.484375 91.4960938,142.484375 C94.8164062,142.484375 97.21875,140.785156 97.21875,138.421875 C97.21875,136.390625 95.6757812,135.199219 92.0625,134.359375 L88.4101562,133.519531 C83.2929688,132.367188 80.890625,129.828125 80.890625,125.628906 C80.890625,120.511719 85.0703125,117.113281 91.3789062,117.113281 C97.296875,117.113281 101.574219,120.511719 101.808594,125.355469 L96.984375,125.355469 C96.6328125,122.875 94.4453125,121.3125 91.359375,121.3125 C88.1171875,121.3125 85.96875,122.875 85.96875,125.277344 C85.96875,127.171875 87.3945312,128.285156 90.890625,129.085938 L94.1328125,129.828125 C99.8554688,131.117188 102.257812,133.5 102.257812,137.796875 C102.257812,143.285156 98.0195312,146.703125 91.1835938,146.703125 C84.71875,146.703125 80.4414062,143.460938 80.1875,138.34375 Z M115.032239,128.050781 C112.141614,128.050781 110.110364,130.121094 109.895521,133.246094 L119.954114,133.246094 C119.856458,130.082031 117.942396,128.050781 115.032239,128.050781 Z M119.993177,140.121094 L124.583021,140.121094 C123.665052,144.007812 120.129896,146.429688 115.090833,146.429688 C108.801771,146.429688 105.012708,142.269531 105.012708,135.394531 C105.012708,128.519531 108.860364,124.203125 115.051771,124.203125 C121.145521,124.203125 124.797864,128.246094 124.797864,134.984375 L124.797864,136.546875 L109.875989,136.546875 L109.875989,136.800781 C109.993177,140.355469 112.043958,142.582031 115.227552,142.582031 C117.629896,142.582031 119.290052,141.703125 119.993177,140.121094 Z M129.857447,119.398438 L134.681666,119.398438 L134.681666,124.769531 L139.251979,124.769531 L139.251979,128.636719 L134.681666,128.636719 L134.681666,139.125 C134.681666,141.234375 135.580104,142.171875 137.611354,142.171875 C138.294947,142.171875 138.666041,142.132812 139.251979,142.074219 L139.251979,145.863281 C138.548854,146 137.650416,146.097656 136.712916,146.097656 C131.810572,146.097656 129.857447,144.4375 129.857447,140.296875 L129.857447,128.636719 L126.478541,128.636719 L126.478541,124.769531 L129.857447,124.769531 L129.857447,119.398438 Z M144.409218,119.398438 L149.233436,119.398438 L149.233436,124.769531 L153.803749,124.769531 L153.803749,128.636719 L149.233436,128.636719 L149.233436,139.125 C149.233436,141.234375 150.131874,142.171875 152.163124,142.171875 C152.846718,142.171875 153.217811,142.132812 153.803749,142.074219 L153.803749,145.863281 C153.100624,146 152.202186,146.097656 151.264686,146.097656 C146.362343,146.097656 144.409218,144.4375 144.409218,140.296875 L144.409218,128.636719 L141.030311,128.636719 L141.030311,124.769531 L144.409218,124.769531 L144.409218,119.398438 Z M157.359426,146 L157.359426,124.632812 L162.183645,124.632812 L162.183645,146 L157.359426,146 Z M159.76177,121.15625 C158.003957,121.15625 156.773488,120.023438 156.773488,118.480469 C156.773488,116.9375 158.003957,115.804688 159.76177,115.804688 C161.539113,115.804688 162.750051,116.9375 162.750051,118.480469 C162.750051,120.023438 161.539113,121.15625 159.76177,121.15625 Z M166.833071,146 L166.833071,124.632812 L171.50104,124.632812 L171.50104,128.050781 L171.833071,128.050781 C172.848696,125.667969 174.997134,124.203125 178.180727,124.203125 C182.946352,124.203125 185.544009,127.074219 185.544009,132.171875 L185.544009,146 L180.700259,146 L180.700259,133.324219 C180.700259,130.0625 179.333071,128.421875 176.383852,128.421875 C173.493227,128.421875 171.676821,130.414062 171.676821,133.558594 L171.676821,146 L166.833071,146 Z M199.119217,141.742188 C202.498123,141.742188 204.529373,139.164062 204.529373,135.082031 C204.529373,131 202.478592,128.402344 199.119217,128.402344 C195.740311,128.402344 193.826248,131 193.826248,135.082031 C193.826248,139.164062 195.740311,141.742188 199.119217,141.742188 Z M199.119217,154.125 C193.630936,154.125 190.037186,151.703125 189.646561,148.03125 L194.509842,148.03125 C194.822342,149.496094 196.541092,150.433594 199.197342,150.433594 C202.517654,150.433594 204.451248,148.871094 204.451248,146.195312 L204.451248,142.152344 L204.119217,142.152344 C202.888748,144.4375 200.564529,145.6875 197.595779,145.6875 C192.205154,145.6875 188.845779,141.507812 188.845779,135.082031 C188.845779,128.539062 192.224686,124.28125 197.673904,124.28125 C200.584061,124.28125 203.123123,125.726562 204.294998,128.050781 L204.627029,128.050781 L204.627029,124.632812 L209.294998,124.632812 L209.294998,146.078125 C209.294998,151.019531 205.349686,154.125 199.119217,154.125 Z M213.39755,130.746094 C213.39755,126.878906 216.913175,124.203125 221.952237,124.203125 C227.030362,124.203125 230.213956,126.449219 230.565518,130.335938 L226.014737,130.335938 C225.663175,128.832031 224.237393,127.875 221.971768,127.875 C219.764737,127.875 218.104581,128.929688 218.104581,130.472656 C218.104581,131.683594 219.120206,132.425781 221.268643,132.914062 L225.038175,133.773438 C229.120206,134.691406 231.014737,136.449219 231.014737,139.59375 C231.014737,143.695312 227.245206,146.429688 221.913175,146.429688 C216.581143,146.429688 213.221768,144.125 212.850675,140.238281 L217.635831,140.238281 C218.104581,141.820312 219.608487,142.757812 222.030362,142.757812 C224.471768,142.757812 226.170987,141.683594 226.170987,140.101562 C226.170987,138.890625 225.253018,138.128906 223.221768,137.679688 L219.432706,136.800781 C215.331143,135.863281 213.39755,133.96875 213.39755,130.746094 Z M262.344841,131.820312 L257.735466,131.820312 C257.286247,129.75 255.684685,128.265625 253.028435,128.265625 C249.708122,128.265625 247.735466,130.824219 247.735466,135.257812 C247.735466,139.75 249.727653,142.367188 253.028435,142.367188 C255.547966,142.367188 257.227653,141.175781 257.735466,138.949219 L262.344841,138.949219 C261.817497,143.421875 258.458122,146.429688 253.047966,146.429688 C246.622185,146.429688 242.833122,142.289062 242.833122,135.257812 C242.833122,128.324219 246.602653,124.203125 253.028435,124.203125 C258.516716,124.203125 261.837028,127.328125 262.344841,131.820312 Z M274.84583,146.429688 C268.43958,146.429688 264.572392,142.25 264.572392,135.316406 C264.572392,128.421875 268.498174,124.203125 274.84583,124.203125 C281.213017,124.203125 285.119267,128.402344 285.119267,135.316406 C285.119267,142.25 281.232549,146.429688 274.84583,146.429688 Z M274.84583,142.367188 C278.224736,142.367188 280.138799,139.789062 280.138799,135.316406 C280.138799,130.863281 278.205205,128.265625 274.84583,128.265625 C271.466924,128.265625 269.53333,130.863281 269.53333,135.316406 C269.53333,139.789062 271.466924,142.367188 274.84583,142.367188 Z M288.655413,146 L288.655413,124.632812 L293.323382,124.632812 L293.323382,128.050781 L293.655413,128.050781 C294.671038,125.667969 296.819476,124.203125 300.003069,124.203125 C304.768694,124.203125 307.366351,127.074219 307.366351,132.171875 L307.366351,146 L302.522601,146 L302.522601,133.324219 C302.522601,130.0625 301.155413,128.421875 298.206194,128.421875 C295.315569,128.421875 293.499163,130.414062 293.499163,133.558594 L293.499163,146 L288.655413,146 Z M313.30484,119.398438 L318.129059,119.398438 L318.129059,124.769531 L322.699371,124.769531 L322.699371,128.636719 L318.129059,128.636719 L318.129059,139.125 C318.129059,141.234375 319.027496,142.171875 321.058746,142.171875 C321.74234,142.171875 322.113434,142.132812 322.699371,142.074219 L322.699371,145.863281 C321.996246,146 321.097809,146.097656 320.160309,146.097656 C315.257965,146.097656 313.30484,144.4375 313.30484,140.296875 L313.30484,128.636719 L309.925934,128.636719 L309.925934,124.769531 L313.30484,124.769531 L313.30484,119.398438 Z M326.196454,146 L326.196454,124.632812 L330.864423,124.632812 L330.864423,127.953125 L331.196454,127.953125 C331.782392,125.84375 334.087079,124.28125 336.840985,124.28125 C337.54411,124.28125 338.403485,124.359375 338.852704,124.496094 L338.852704,128.988281 C338.48161,128.851562 337.192548,128.714844 336.372235,128.714844 C333.227704,128.714844 331.040204,130.667969 331.040204,133.65625 L331.040204,146 L326.196454,146 Z M350.162287,146.429688 C343.756037,146.429688 339.888849,142.25 339.888849,135.316406 C339.888849,128.421875 343.814631,124.203125 350.162287,124.203125 C356.529474,124.203125 360.435724,128.402344 360.435724,135.316406 C360.435724,142.25 356.549006,146.429688 350.162287,146.429688 Z M350.162287,142.367188 C353.541193,142.367188 355.455256,139.789062 355.455256,135.316406 C355.455256,130.863281 353.521662,128.265625 350.162287,128.265625 C346.783381,128.265625 344.849787,130.863281 344.849787,135.316406 C344.849787,139.789062 346.783381,142.367188 350.162287,142.367188 Z M364.167182,146 L364.167182,116.371094 L369.010932,116.371094 L369.010932,146 L364.167182,146 Z M373.972859,146 L373.972859,116.371094 L378.816609,116.371094 L378.816609,146 L373.972859,146 Z M392.548067,128.050781 C389.657442,128.050781 387.626192,130.121094 387.411348,133.246094 L397.469942,133.246094 C397.372286,130.082031 395.458223,128.050781 392.548067,128.050781 Z M397.509005,140.121094 L402.098848,140.121094 C401.18088,144.007812 397.645723,146.429688 392.606661,146.429688 C386.317598,146.429688 382.528536,142.269531 382.528536,135.394531 C382.528536,128.519531 386.376192,124.203125 392.567598,124.203125 C398.661348,124.203125 402.313692,128.246094 402.313692,134.984375 L402.313692,136.546875 L387.391817,136.546875 L387.391817,136.800781 C387.509005,140.355469 389.559786,142.582031 392.74338,142.582031 C395.145723,142.582031 396.80588,141.703125 397.509005,140.121094 Z M405.830306,146 L405.830306,124.632812 L410.498275,124.632812 L410.498275,127.953125 L410.830306,127.953125 C411.416244,125.84375 413.720931,124.28125 416.474838,124.28125 C417.177963,124.28125 418.037338,124.359375 418.486556,124.496094 L418.486556,128.988281 C418.115463,128.851562 416.8264,128.714844 416.006088,128.714844 C412.861556,128.714844 410.674056,130.667969 410.674056,133.65625 L410.674056,146 L405.830306,146 Z M459.03541,124.632812 L453.25416,146 L448.156504,146 L443.996347,130.609375 L443.664316,130.609375 L439.523691,146 L434.484629,146 L428.703379,124.632812 L433.586191,124.632812 L437.140879,140.589844 L437.47291,140.589844 L441.574472,124.632812 L446.203379,124.632812 L450.344004,140.589844 L450.676035,140.589844 L454.211191,124.632812 L459.03541,124.632812 Z M461.966087,146 L461.966087,124.632812 L466.790305,124.632812 L466.790305,146 L461.966087,146 Z M464.36843,121.15625 C462.610618,121.15625 461.380149,120.023438 461.380149,118.480469 C461.380149,116.9375 462.610618,115.804688 464.36843,115.804688 C466.145774,115.804688 467.356712,116.9375 467.356712,118.480469 C467.356712,120.023438 466.145774,121.15625 464.36843,121.15625 Z M472.982701,119.398438 L477.80692,119.398438 L477.80692,124.769531 L482.377232,124.769531 L482.377232,128.636719 L477.80692,128.636719 L477.80692,139.125 C477.80692,141.234375 478.705357,142.171875 480.736607,142.171875 C481.420201,142.171875 481.791295,142.132812 482.377232,142.074219 L482.377232,145.863281 C481.674107,146 480.77567,146.097656 479.83817,146.097656 C474.935826,146.097656 472.982701,144.4375 472.982701,140.296875 L472.982701,128.636719 L469.603795,128.636719 L469.603795,124.769531 L472.982701,124.769531 L472.982701,119.398438 Z M486.069628,146 L486.069628,116.371094 L490.835253,116.371094 L490.835253,128.089844 L491.186815,128.089844 C492.20244,125.6875 494.487596,124.242188 497.67119,124.242188 C502.241503,124.242188 505.01494,127.132812 505.01494,132.210938 L505.01494,146 L500.17119,146 L500.17119,133.363281 C500.17119,130.121094 498.686815,128.460938 495.874315,128.460938 C492.690721,128.460938 490.913378,130.53125 490.913378,133.597656 L490.913378,146 L486.069628,146 Z M518.239575,130.746094 C518.239575,126.878906 521.7552,124.203125 526.794262,124.203125 C531.872387,124.203125 535.055981,126.449219 535.407544,130.335938 L530.856762,130.335938 C530.5052,128.832031 529.079419,127.875 526.813794,127.875 C524.606762,127.875 522.946606,128.929688 522.946606,130.472656 C522.946606,131.683594 523.962231,132.425781 526.110669,132.914062 L529.8802,133.773438 C533.962231,134.691406 535.856762,136.449219 535.856762,139.59375 C535.856762,143.695312 532.087231,146.429688 526.7552,146.429688 C521.423169,146.429688 518.063794,144.125 517.6927,140.238281 L522.477856,140.238281 C522.946606,141.820312 524.450512,142.757812 526.872387,142.757812 C529.313794,142.757812 531.013012,141.683594 531.013012,140.101562 C531.013012,138.890625 530.095044,138.128906 528.063794,137.679688 L524.274731,136.800781 C520.173169,135.863281 518.239575,133.96875 518.239575,130.746094 Z M567.439783,124.632812 L561.658533,146 L556.560877,146 L552.40072,130.609375 L552.068689,130.609375 L547.928064,146 L542.889002,146 L537.107752,124.632812 L541.990564,124.632812 L545.545252,140.589844 L545.877283,140.589844 L549.978845,124.632812 L554.607752,124.632812 L558.748377,140.589844 L559.080408,140.589844 L562.615564,124.632812 L567.439783,124.632812 Z M570.37046,146 L570.37046,124.632812 L575.194678,124.632812 L575.194678,146 L570.37046,146 Z M572.772803,121.15625 C571.014991,121.15625 569.784522,120.023438 569.784522,118.480469 C569.784522,116.9375 571.014991,115.804688 572.772803,115.804688 C574.550147,115.804688 575.761085,116.9375 575.761085,118.480469 C575.761085,120.023438 574.550147,121.15625 572.772803,121.15625 Z M581.387074,119.398438 L586.211293,119.398438 L586.211293,124.769531 L590.781605,124.769531 L590.781605,128.636719 L586.211293,128.636719 L586.211293,139.125 C586.211293,141.234375 587.10973,142.171875 589.14098,142.171875 C589.824574,142.171875 590.195668,142.132812 590.781605,142.074219 L590.781605,145.863281 C590.07848,146 589.180043,146.097656 588.242543,146.097656 C583.340199,146.097656 581.387074,144.4375 581.387074,140.296875 L581.387074,128.636719 L578.008168,128.636719 L578.008168,124.769531 L581.387074,124.769531 L581.387074,119.398438 Z M612.540407,131.820312 L607.931032,131.820312 C607.481813,129.75 605.880251,128.265625 603.224001,128.265625 C599.903688,128.265625 597.931032,130.824219 597.931032,135.257812 C597.931032,139.75 599.923219,142.367188 603.224001,142.367188 C605.743532,142.367188 607.423219,141.175781 607.931032,138.949219 L612.540407,138.949219 C612.013063,143.421875 608.653688,146.429688 603.243532,146.429688 C596.817751,146.429688 593.028688,142.289062 593.028688,135.257812 C593.028688,128.324219 596.798219,124.203125 603.224001,124.203125 C608.712282,124.203125 612.032594,127.328125 612.540407,131.820312 Z M616.017959,146 L616.017959,116.371094 L620.783584,116.371094 L620.783584,128.089844 L621.135146,128.089844 C622.150771,125.6875 624.435927,124.242188 627.619521,124.242188 C632.189834,124.242188 634.963271,127.132812 634.963271,132.210938 L634.963271,146 L630.119521,146 L630.119521,133.363281 C630.119521,130.121094 628.635146,128.460938 625.822646,128.460938 C622.639052,128.460938 620.861709,130.53125 620.861709,133.597656 L620.861709,146 L616.017959,146 Z M648.323635,128.050781 C645.43301,128.050781 643.40176,130.121094 643.186917,133.246094 L653.24551,133.246094 C653.147854,130.082031 651.233792,128.050781 648.323635,128.050781 Z M653.284573,140.121094 L657.874417,140.121094 C656.956448,144.007812 653.421292,146.429688 648.382229,146.429688 C642.093167,146.429688 638.304104,142.269531 638.304104,135.394531 C638.304104,128.519531 642.15176,124.203125 648.343167,124.203125 C654.436917,124.203125 658.08926,128.246094 658.08926,134.984375 L658.08926,136.546875 L643.167385,136.546875 L643.167385,136.800781 C643.284573,140.355469 645.335354,142.582031 648.518948,142.582031 C650.921292,142.582031 652.581448,141.703125 653.284573,140.121094 Z M661.117593,130.746094 C661.117593,126.878906 664.633218,124.203125 669.672281,124.203125 C674.750406,124.203125 677.934,126.449219 678.285562,130.335938 L673.734781,130.335938 C673.383218,128.832031 671.957437,127.875 669.691812,127.875 C667.484781,127.875 665.824625,128.929688 665.824625,130.472656 C665.824625,131.683594 666.84025,132.425781 668.988687,132.914062 L672.758218,133.773438 C676.84025,134.691406 678.734781,136.449219 678.734781,139.59375 C678.734781,143.695312 674.96525,146.429688 669.633218,146.429688 C664.301187,146.429688 660.941812,144.125 660.570718,140.238281 L665.355875,140.238281 C665.824625,141.820312 667.328531,142.757812 669.750406,142.757812 C672.191812,142.757812 673.891031,141.683594 673.891031,140.101562 C673.891031,138.890625 672.973062,138.128906 670.941812,137.679688 L667.15275,136.800781 C663.051187,135.863281 661.117593,133.96875 661.117593,130.746094 Z" id="Settingscontrollerwithswitches" fill="#B8C5D2"></path>
        </g>
    </g>
</svg>