<?xml version="1.0" encoding="UTF-8"?>
<svg width="1600px" height="252px" viewBox="0 0 1600 252" version="1.1" xmlns="http://www.w3.org/2000/svg" xmlns:xlink="http://www.w3.org/1999/xlink">
    <!-- Generator: Sketch 54.1 (76490) - https://sketchapp.com -->
    <title>request-permission - baner</title>
    <desc>Created with Sketch.</desc>
    <g id="request-permission---baner" stroke="none" stroke-width="1" fill="none" fill-rule="evenodd">
        <rect fill="#FFFFFF" x="0" y="0" width="1600" height="252"></rect>
        <g id="Group-3" transform="translate(421.000000, 72.000000)" fill="#007AFF" fill-rule="nonzero">
            <path d="M4.70214844,67.9384766 L20.0830078,67.9384766 C20.4785156,72.5527344 25.0927734,75.4970703 31.7724609,75.4970703 C37.7929688,75.4970703 41.9238281,72.5966797 41.9238281,68.421875 C41.9238281,64.90625 39.1552734,63.0166016 31.9042969,61.5664062 L23.5546875,59.8964844 C11.953125,57.6992188 5.9765625,51.3710938 5.9765625,41.3955078 C5.9765625,29.0029297 15.9082031,20.8730469 31.2011719,20.8730469 C46.0546875,20.8730469 56.3378906,28.9150391 56.6015625,40.6484375 L41.7041016,40.6484375 C41.3525391,36.1660156 37.0898438,33.0458984 31.4208984,33.0458984 C25.7519531,33.0458984 22.0166016,35.7265625 22.0166016,39.9453125 C22.0166016,43.4169922 24.8291016,45.4384766 31.5087891,46.7568359 L39.6826172,48.3388672 C52.2070312,50.7558594 57.8320312,56.4248047 57.8320312,66.4882812 C57.8320312,79.7158203 47.7246094,87.7138672 31.1132812,87.7138672 C15.0732422,87.7138672 4.96582031,80.1552734 4.70214844,67.9384766 Z M66.9748828,22.5869141 L94.7483203,22.5869141 C108.371367,22.5869141 117.599883,31.4638672 117.599883,45.0869141 C117.599883,58.578125 107.887969,67.4111328 93.7815235,67.4111328 L83.1028125,67.4111328 L83.1028125,86 L66.9748828,86 L66.9748828,22.5869141 Z M83.1028125,34.9794922 L83.1028125,55.2382812 L90.3977344,55.2382812 C97.2532032,55.2382812 101.296172,51.7226562 101.296172,45.1308594 C101.296172,38.4511719 97.2971485,34.9794922 90.485625,34.9794922 L83.1028125,34.9794922 Z M169.457578,72.6845703 L169.457578,86 L126.391172,86 L126.391172,22.5869141 L142.519102,22.5869141 L142.519102,72.6845703 L169.457578,72.6845703 Z M195.739102,75.8925781 C200.660977,75.8925781 204.484219,72.640625 204.484219,68.421875 L204.484219,65.2138672 L196.266445,65.7412109 C191.652188,66.0927734 189.235195,67.8945312 189.235195,70.8388672 C189.235195,73.9589844 191.827969,75.8925781 195.739102,75.8925781 Z M190.070156,86.7470703 C180.665859,86.7470703 174.249844,80.9023438 174.249844,71.9375 C174.249844,63.0166016 181.193203,57.8310547 193.805508,57.0839844 L204.484219,56.46875 L204.484219,52.6455078 C204.484219,49.3496094 202.023281,47.3720703 197.716641,47.3720703 C193.629727,47.3720703 190.993008,48.734375 189.982266,51.3271484 L176.007656,51.3271484 C176.710781,41.8349609 185.368008,35.9462891 198.595547,35.9462891 C212.086758,35.9462891 219.777188,42.0986328 219.777188,52.6455078 L219.777188,86 L204.66,86 L204.66,79.9355469 L203.825039,79.9355469 C201.627774,84.1103516 196.266445,86.7470703 190.070156,86.7470703 Z M228.568477,86 L228.568477,37.0888672 L243.685664,37.0888672 L243.685664,45.1308594 L244.520625,45.1308594 C245.707149,40.2089844 250.453242,36.3417969 256.561641,36.3417969 C258.62707,36.3417969 261.044063,36.6054688 262.186641,37.0888672 L262.186641,50.3164062 C261.000117,49.8330078 257.88,49.4375 255.506953,49.4375 C248.651484,49.4375 244.081172,53.3046875 244.081172,60.1162109 L244.081172,86 L228.568477,86 Z M284.073633,55.3701172 L297.960352,37.0888672 L315.362695,37.0888672 L297.916406,58.0947266 L316.549219,86 L298.44375,86 L286.226953,67.2792969 L283.238672,70.6630859 L283.238672,86 L267.725977,86 L267.725977,18.7636719 L283.238672,18.7636719 L283.238672,55.3701172 L284.073633,55.3701172 Z M348.587578,87.7138672 C329.603203,87.7138672 317.91375,74.9697266 317.91375,54.2714844 C317.91375,33.5732422 329.559258,20.8730469 348.587578,20.8730469 C364.539727,20.8730469 376.624688,31.5078125 377.108086,45.8779297 L361.595391,45.8779297 C360.76043,38.9785156 355.530938,34.3203125 348.587578,34.3203125 C339.75457,34.3203125 334.349297,41.8789062 334.349297,54.2275391 C334.349297,66.6201172 339.75457,74.2666016 348.631524,74.2666016 C355.574883,74.2666016 360.76043,69.7841797 361.683281,62.9726562 L377.152031,62.9726562 C376.624688,77.4746094 364.847344,87.7138672 348.587578,87.7138672 Z M406.861289,87.1425781 C391.216758,87.1425781 381.944297,77.6064453 381.944297,61.5224609 C381.944297,45.7021484 391.48043,35.9462891 406.861289,35.9462891 C422.330039,35.9462891 431.778281,45.6142578 431.778281,61.5224609 C431.778281,77.6503906 422.549766,87.1425781 406.861289,87.1425781 Z M406.861289,75.2773438 C412.57418,75.2773438 415.826133,70.2236328 415.826133,61.5224609 C415.826133,52.9970703 412.486289,47.8115234 406.861289,47.8115234 C401.236289,47.8115234 397.896446,52.9970703 397.896446,61.5224609 C397.896446,70.2675781 401.148399,75.2773438 406.861289,75.2773438 Z M438.460196,86 L438.460196,37.0888672 L453.577383,37.0888672 L453.577383,45.0429688 L454.412344,45.0429688 C456.565664,39.5058594 461.663321,35.9462891 468.738516,35.9462891 C479.636953,35.9462891 485.305899,42.6699219 485.305899,54.4033203 L485.305899,86 L469.749258,86 L469.749258,57.875 C469.749258,51.9423828 467.332266,48.6464844 462.058828,48.6464844 C457.005117,48.6464844 453.972891,52.4257812 453.972891,58.0507812 L453.972891,86 L438.460196,86 Z M497.832539,25.8828125 L513.345235,25.8828125 L513.345235,37.7480469 L523.188985,37.7480469 L523.188985,49.3056641 L513.345235,49.3056641 L513.345235,69.125 C513.345235,72.8164062 515.234883,74.6181641 519.277852,74.6181641 C521.07961,74.6181641 522.046407,74.5302734 523.188985,74.3984375 L523.188985,85.4726562 C521.563008,85.8242188 518.706563,86.0878906 515.762227,86.0878906 C502.88625,86.0878906 497.832539,82.1767578 497.832539,72.5966797 L497.832539,49.3056641 L490.317891,49.3056641 L490.317891,37.7480469 L497.832539,37.7480469 L497.832539,25.8828125 Z M530.398242,86 L530.398242,37.0888672 L545.51543,37.0888672 L545.51543,45.1308594 L546.350391,45.1308594 C547.536914,40.2089844 552.283008,36.3417969 558.391407,36.3417969 C560.456836,36.3417969 562.873828,36.6054688 564.016407,37.0888672 L564.016407,50.3164062 C562.829883,49.8330078 559.709766,49.4375 557.336719,49.4375 C550.48125,49.4375 545.910938,53.3046875 545.910938,60.1162109 L545.910938,86 L530.398242,86 Z M590.649493,87.1425781 C575.004961,87.1425781 565.7325,77.6064453 565.7325,61.5224609 C565.7325,45.7021484 575.268633,35.9462891 590.649493,35.9462891 C606.118243,35.9462891 615.566485,45.6142578 615.566485,61.5224609 C615.566485,77.6503906 606.337969,87.1425781 590.649493,87.1425781 Z M590.649493,75.2773438 C596.362383,75.2773438 599.614336,70.2236328 599.614336,61.5224609 C599.614336,52.9970703 596.274493,47.8115234 590.649493,47.8115234 C585.024493,47.8115234 581.684649,52.9970703 581.684649,61.5224609 C581.684649,70.2675781 584.936602,75.2773438 590.649493,75.2773438 Z M622.687852,86 L622.687852,18.7636719 L638.200547,18.7636719 L638.200547,86 L622.687852,86 Z M648.17836,86 L648.17836,18.7636719 L663.691055,18.7636719 L663.691055,86 L648.17836,86 Z M695.246016,46.9765625 C690.14836,46.9765625 686.588789,50.5361328 686.193282,56.0732422 L703.947188,56.0732422 C703.683516,50.3603516 700.431563,46.9765625 695.246016,46.9765625 Z M704.518477,71.5859375 L718.712813,71.5859375 C716.998946,81.1220703 708.034102,87.1425781 695.377852,87.1425781 C679.777266,87.1425781 670.812422,77.9140625 670.812422,61.8740234 C670.812422,45.7460938 679.996993,35.9462891 695.158125,35.9462891 C710.231368,35.9462891 719.02043,45.0869141 719.02043,60.6875 L719.02043,64.9941406 L686.105391,64.9941406 L686.105391,65.7851562 C686.237227,72.1572266 689.884688,76.1123047 695.817305,76.1123047 C700.343672,76.1123047 703.463789,74.4423828 704.518477,71.5859375 Z M725.658399,86 L725.658399,37.0888672 L740.775586,37.0888672 L740.775586,45.1308594 L741.610547,45.1308594 C742.797071,40.2089844 747.543164,36.3417969 753.651563,36.3417969 C755.716993,36.3417969 758.133985,36.6054688 759.276563,37.0888672 L759.276563,50.3164062 C758.090039,49.8330078 754.969922,49.4375 752.596875,49.4375 C745.741407,49.4375 741.171094,53.3046875 741.171094,60.1162109 L741.171094,86 L725.658399,86 Z" id="SPLarkController"></path>
        </g>
    </g>
</svg>